<?xml version="1.0" encoding="UTF-8"?>
<svg id="Layer_2" data-name="Layer 2" xmlns="http://www.w3.org/2000/svg" viewBox="0 0 360.74 96.29">
  <defs>
    <style>
      .cls-1 {
        fill: #fff;
      }

      .cls-2 {
        fill: #ff0700;
      }
    </style>
  </defs>
  <g id="Layer_1-2" data-name="Layer 1">
    <g>
      <g>
        <polygon class="cls-2" points="340.22 5.69 335.63 5.69 335.63 20.97 346.41 20.97 346.41 17 340.22 17 340.22 5.69"/>
        <path class="cls-2" d="M357.44,11.89l-1.69-.7-.33-.12c-1.12-.41-1.71-.64-1.71-.98,0-.5.57-.61,1.06-.61,1.32,0,2.06.33,3.06.99l.29.19,2.35-2.95-.25-.24c-1.39-1.3-3.29-2.05-5.22-2.05-3.37,0-5.92,2.1-5.92,4.89,0,2.01,1.2,3.61,3.29,4.39l2.31.96c1.11.45,1.37.6,1.37,1.04,0,.35-.64.47-1.23.47-1.42,0-2.68-.72-3.48-1.33l-.29-.22-2.65,3.2.28.24c1.6,1.38,3.74,2.17,5.88,2.17,4.25,0,6.19-2.6,6.19-5.02,0-2.07-1.11-3.52-3.29-4.33Z"/>
      </g>
      <path class="cls-1" d="M1.69,46.6h24.55l-18.24,20.76C2.84,73.23,0,80.77,0,88.58v6.67h54.44v-18.87h-25.39s10.65-12.35,18.07-21.15c4.54-5.39,7.18-12.11,7.52-19.15l.4-8.35H1.69v18.87Z"/>
      <path class="cls-1" d="M88.2,68.99V27.73s-23.69,0-23.69,0v42.17c0,3.7.51,7.16,1.5,10.29,1.02,3.2,2.56,6.02,4.58,8.39,2.04,2.41,4.58,4.3,7.54,5.64,2.95,1.33,6.34,2,10.1,2,10.63,0,14.58-5.84,15.92-7.82h1c0,3.79,3.07,6.86,6.86,6.86h14.18V27.73h-23.69v41.26c0,3.95-3.2,7.15-7.15,7.15h0c-3.95,0-7.15-3.2-7.15-7.15Z"/>
      <path class="cls-1" d="M193.39,36.07c-2.23-3.01-4.94-5.34-8.05-6.92-3.11-1.58-6.54-2.38-10.17-2.38-2.11,0-5.99.31-9.34,2.29-2.6,1.54-4.46,4.68-5.49,5.87h-1V0l-23.69,6v89.25h14.59c3.79,0,6.86-3.07,6.86-6.86h0s1,0,1,0c.91,1.55,2.76,5.69,7.4,7.21,1.62.53,3.53.62,5.57.62,4.35,0,8.39-.92,12.01-2.74,3.58-1.8,6.7-4.34,9.27-7.54,2.53-3.15,4.52-6.91,5.91-11.15,1.38-4.21,2.08-8.86,2.08-13.8,0-5.24-.61-9.99-1.82-14.14-1.22-4.2-2.95-7.83-5.12-10.77ZM173.74,69.6c-4.19,3.38-9.8,3.55-14.41,1.08v-16.12c4.55-4.45,11.99-4.74,15.66-.42,4.12,4.85,3.21,11.27-1.26,15.45Z"/>
      <path class="cls-1" d="M247.56,88.4h1c0,3.79,3.07,6.86,6.86,6.86h12.9v-41.57c.02-7.31-2.3-14.3-7.24-19.43-13.55-13.35-40.62-8.14-53.29,4.14,2.81,4.32,5.49,12.62,11.99,12.12,4.6.15,7.37-2.77,11.54-4.11,8.01-2.07,14.44.69,13.8,9.53-3,.07-17.21-1.16-24.63,1.48-19.81,7.65-19.53,31.46-2.13,37.57,11.43,4.3,26.84-3.1,29.22-6.58ZM245.11,68.32v8.03c-18.89,11.86-26.04-10.72,0-8.03Z"/>
      <path class="cls-1" d="M315.77,54v41.26s23.69,0,23.69,0v-42.17c0-3.7-.51-7.16-1.5-10.29-1.02-3.2-2.56-6.02-4.58-8.39-2.04-2.41-4.58-4.3-7.54-5.64-2.95-1.33-6.34-2-10.1-2-10.63,0-14.58,5.84-15.92,7.82h-1c0-3.79-3.07-6.86-6.86-6.86h-14.18v67.52h23.69v-41.26c0-3.95,3.2-7.15,7.15-7.15h0c3.95,0,7.15,3.2,7.15,7.15Z"/>
    </g>
  </g>
</svg>